name rise34.3697peak60.0498fall86.3158.mot
datacolumns 19
datarows 32
range 3.18832600000000 3.23998500000000
endheader
time	ground_force1_vx	ground_force1_vy	ground_force1_vz	ground_force1_px	ground_force1_py	ground_force1_pz	ground_force2_vx	ground_force2_vy	ground_force2_vz	ground_force2_px	ground_force2_py	ground_force2_pz	ground_torque1_x	ground_torque1_y	ground_torque1_z	ground_torque2_x	ground_torque2_y	ground_torque2_z	
3.18832600000000	-11.51031000000000	42.69257900000000	-8.27914000000000	0.40140800000000	0.00000000000000	0.06276800000000	-48.89590100000000	749.63606800000002	-51.74480300000000	0.20915600000000	0.00000000000000	-0.10342400000000	0.00000000000000	-6.78012300000000	0.00000000000000	0.00000000000000	-29.36307200000000	0.00000000000000	
3.18998600000000	-12.55434600000000	50.13150000000000	-9.32549800000000	0.39820300000000	0.00000000000000	0.06398300000000	-49.33005500000000	746.13678800000002	-51.28327100000000	0.20782000000000	0.00000000000000	-0.10342000000000	0.00000000000000	-7.63181100000000	0.00000000000000	0.00000000000000	-29.20061600000000	0.00000000000000	
3.19165300000000	-13.36612100000000	57.68954800000000	-10.28203200000000	0.39576800000000	0.00000000000000	0.06504600000000	-49.77848700000000	742.57178599999997	-50.80675700000000	0.20645800000000	0.00000000000000	-0.10341500000000	0.00000000000000	-8.42288500000000	0.00000000000000	0.00000000000000	-29.03728300000000	0.00000000000000	
3.19332000000000	-13.91593200000000	65.27180799999999	-11.12691200000000	0.39397200000000	0.00000000000000	0.06598400000000	-50.24085900000000	738.93958499999997	-50.31517200000000	0.20507200000000	0.00000000000000	-0.10340600000000	0.00000000000000	-9.13809200000000	0.00000000000000	0.00000000000000	-28.87308900000000	0.00000000000000	
3.19499900000000	-14.18754100000000	72.80608100000001	-11.84556900000000	0.39270900000000	0.00000000000000	0.06681600000000	-50.71675000000000	735.23853899999995	-49.80843500000000	0.20366200000000	0.00000000000000	-0.10339500000000	0.00000000000000	-9.76724300000000	0.00000000000000	0.00000000000000	-28.70803600000000	0.00000000000000	
3.19665100000000	-14.17785000000000	80.24519700000000	-12.43080500000000	0.39189700000000	0.00000000000000	0.06755800000000	-51.20565100000000	731.46683499999995	-49.28647900000000	0.20223200000000	0.00000000000000	-0.10338000000000	0.00000000000000	-10.30530300000000	0.00000000000000	0.00000000000000	-28.54211800000000	0.00000000000000	
3.19832500000000	-13.89555300000000	87.56688000000000	-12.88228900000000	0.39146600000000	0.00000000000000	0.06822200000000	-51.70696700000000	727.62250300000005	-48.74924600000000	0.20078100000000	0.00000000000000	-0.10336300000000	0.00000000000000	-10.75205200000000	0.00000000000000	0.00000000000000	-28.37531300000000	0.00000000000000	
3.19998800000000	-13.35904600000000	94.77158200000000	-13.20556400000000	0.39136300000000	0.00000000000000	0.06882000000000	-52.22001400000000	723.70342100000005	-48.19669600000000	0.19931300000000	0.00000000000000	-0.10334200000000	0.00000000000000	-11.11141200000000	0.00000000000000	0.00000000000000	-28.20758800000000	0.00000000000000	
3.20165200000000	-12.59389500000000	101.87881500000000	-13.41076100000000	0.39153900000000	0.00000000000000	0.06935900000000	-52.74402200000000	719.70732399999997	-47.62880300000000	0.19783000000000	0.00000000000000	-0.10331800000000	0.00000000000000	-11.39054100000000	0.00000000000000	0.00000000000000	-28.03890000000000	0.00000000000000	
3.20332400000000	-11.63015500000000	108.92255800000000	-13.51114300000000	0.39195700000000	0.00000000000000	0.06984800000000	-53.27813200000000	715.63181099999997	-47.04555900000000	0.19633200000000	0.00000000000000	-0.10329000000000	0.00000000000000	-11.59882500000000	0.00000000000000	0.00000000000000	-27.86919000000000	0.00000000000000	
3.20498800000000	-10.49977500000000	115.94626100000001	-13.52166100000000	0.39258600000000	0.00000000000000	0.07029200000000	-53.82139800000000	711.47435700000005	-46.44697800000000	0.19482300000000	0.00000000000000	-0.10325800000000	0.00000000000000	-11.74684700000000	0.00000000000000	0.00000000000000	-27.69838900000000	0.00000000000000	
3.20665100000000	-9.23429100000000	122.99794199999999	-13.45761300000000	0.39339600000000	0.00000000000000	0.07069600000000	-54.37278900000000	707.23232499999995	-45.83309500000000	0.19330500000000	0.00000000000000	-0.10322200000000	0.00000000000000	-11.84543700000000	0.00000000000000	0.00000000000000	-27.52641400000000	0.00000000000000	
3.20831800000000	-7.86293900000000	130.12573499999999	-13.33351200000000	0.39436600000000	0.00000000000000	0.07106400000000	-54.93118500000000	702.90297299999997	-45.20396700000000	0.19178000000000	0.00000000000000	-0.10318300000000	0.00000000000000	-11.90485100000000	0.00000000000000	0.00000000000000	-27.35317100000000	0.00000000000000	
3.20999700000000	-6.41126700000000	137.37417400000001	-13.16220100000000	0.39547500000000	0.00000000000000	0.07140200000000	-55.49538300000000	698.48347100000001	-44.55967700000000	0.19025000000000	0.00000000000000	-0.10313800000000	0.00000000000000	-11.93412900000000	0.00000000000000	0.00000000000000	-27.17855100000000	0.00000000000000	
3.21166100000000	-4.90025900000000	144.78136499999999	-12.95425800000000	0.39670600000000	0.00000000000000	0.07171100000000	-56.06409800000000	693.97091200000000	-43.90033700000000	0.18871900000000	0.00000000000000	-0.10309000000000	0.00000000000000	-11.94064500000000	0.00000000000000	0.00000000000000	-27.00243500000000	0.00000000000000	
3.21332400000000	-3.34595500000000	152.37710000000001	-12.71767000000000	0.39804400000000	0.00000000000000	0.07199400000000	-56.63596400000000	689.36232900000005	-43.22608500000000	0.18718700000000	0.00000000000000	-0.10303600000000	0.00000000000000	-11.92986000000000	0.00000000000000	0.00000000000000	-26.82469000000000	0.00000000000000	
3.21499200000000	-1.75950000000000	160.18189699999999	-12.45776300000000	0.39947500000000	0.00000000000000	0.07225400000000	-57.20953400000000	684.65470800000003	-42.53708900000000	0.18565900000000	0.00000000000000	-0.10297800000000	0.00000000000000	-11.90525200000000	0.00000000000000	0.00000000000000	-26.64517100000000	0.00000000000000	
3.21665700000000	-0.14754800000000	168.20686400000000	-12.17733500000000	0.40098800000000	0.00000000000000	0.07249300000000	-57.78329000000000	679.84500800000001	-41.83355100000000	0.18413600000000	0.00000000000000	-0.10291500000000	0.00000000000000	-11.86840200000000	0.00000000000000	0.00000000000000	-26.46372200000000	0.00000000000000	
3.21832100000000	1.48708000000000	176.45424399999999	-11.87696700000000	0.40257300000000	0.00000000000000	0.07271300000000	-58.35563600000000	674.93017599999996	-41.11570200000000	0.18262200000000	0.00000000000000	-0.10284600000000	0.00000000000000	-11.81920500000000	0.00000000000000	0.00000000000000	-26.28017300000000	0.00000000000000	
3.21998500000000	3.14457800000000	184.91848200000001	-11.55543000000000	0.40422000000000	0.00000000000000	0.07291600000000	-58.92491100000000	669.90716499999996	-40.38380900000000	0.18111900000000	0.00000000000000	-0.10277300000000	0.00000000000000	-11.75616900000000	0.00000000000000	0.00000000000000	-26.09434500000000	0.00000000000000	
3.22165300000000	4.82726800000000	193.58763200000001	-11.21015900000000	0.40592200000000	0.00000000000000	0.07310200000000	-59.48938700000000	664.77295700000002	-39.63817200000000	0.17963000000000	0.00000000000000	-0.10269300000000	0.00000000000000	-11.67675300000000	0.00000000000000	0.00000000000000	-25.90604500000000	0.00000000000000	
3.22332100000000	6.53872200000000	202.44493600000001	-10.83773700000000	0.40767000000000	0.00000000000000	0.07327400000000	-60.04727400000000	659.52458200000001	-38.87912700000000	0.17815700000000	0.00000000000000	-0.10260800000000	0.00000000000000	-11.57773600000000	0.00000000000000	0.00000000000000	-25.71507000000000	0.00000000000000	
3.22498700000000	8.28295900000000	211.47043300000001	-10.43435700000000	0.40945900000000	0.00000000000000	0.07343200000000	-60.59672400000000	654.15913599999999	-38.10704700000000	0.17670400000000	0.00000000000000	-0.10251700000000	0.00000000000000	-11.45555700000000	0.00000000000000	0.00000000000000	-25.52120600000000	0.00000000000000	
3.22665600000000	10.06376000000000	220.64247100000000	-9.99622800000000	0.41128100000000	0.00000000000000	0.07357700000000	-61.13583900000000	648.67380500000002	-37.32233800000000	0.17527400000000	0.00000000000000	-0.10242000000000	0.00000000000000	-11.30663200000000	0.00000000000000	0.00000000000000	-25.32422900000000	0.00000000000000	
3.22832200000000	11.88413100000000	229.93902000000000	-9.51990600000000	0.41313100000000	0.00000000000000	0.07371000000000	-61.66267000000000	643.06588399999998	-36.52544600000000	0.17386800000000	0.00000000000000	-0.10231700000000	0.00000000000000	-11.12761400000000	0.00000000000000	0.00000000000000	-25.12390400000000	0.00000000000000	
3.22998700000000	13.74592800000000	239.33875599999999	-9.00254300000000	0.41500500000000	0.00000000000000	0.07383300000000	-62.17523000000000	637.33279800000003	-35.71685100000000	0.17249000000000	0.00000000000000	-0.10220700000000	0.00000000000000	-10.91558900000000	0.00000000000000	0.00000000000000	-24.91998800000000	0.00000000000000	
3.23165100000000	15.64963400000000	248.82184799999999	-8.44205000000000	0.41689700000000	0.00000000000000	0.07394500000000	-62.67149000000000	631.47211900000002	-34.89707200000000	0.17114300000000	0.00000000000000	-0.10209100000000	0.00000000000000	-10.66822000000000	0.00000000000000	0.00000000000000	-24.71222700000000	0.00000000000000	
3.23332200000000	17.59428300000000	258.37047799999999	-7.83717500000000	0.41880300000000	0.00000000000000	0.07404800000000	-63.14939400000000	625.48158899999999	-34.06666400000000	0.16983000000000	0.00000000000000	-0.10196800000000	0.00000000000000	-10.38381300000000	0.00000000000000	0.00000000000000	-24.50036000000000	0.00000000000000	
3.23499100000000	19.57750500000000	267.96909799999997	-7.18751800000000	0.42071900000000	0.00000000000000	0.07414200000000	-63.60685700000000	619.35913300000004	-33.22621600000000	0.16855300000000	0.00000000000000	-0.10183800000000	0.00000000000000	-10.06134400000000	0.00000000000000	0.00000000000000	-24.28412100000000	0.00000000000000	
3.23665800000000	21.59566200000000	277.60445700000002	-6.49347500000000	0.42264000000000	0.00000000000000	0.07422800000000	-64.04177900000001	613.10287400000004	-32.37635900000000	0.16731500000000	0.00000000000000	-0.10170100000000	0.00000000000000	-9.70043300000000	0.00000000000000	0.00000000000000	-24.06323400000000	0.00000000000000	
3.23832100000000	23.64406000000000	287.26545099999998	-5.75615200000000	0.42456400000000	0.00000000000000	0.07430500000000	-64.45204400000000	606.71114799999998	-31.51775500000000	0.16611900000000	0.00000000000000	-0.10155700000000	0.00000000000000	-9.30127700000000	0.00000000000000	0.00000000000000	-23.83742200000000	0.00000000000000	
3.23998500000000	25.71718700000000	296.94284399999998	-4.97724000000000	0.42648600000000	0.00000000000000	0.07437600000000	-64.83553499999999	600.18251299999997	-30.65110600000000	0.16496700000000	0.00000000000000	-0.10140600000000	0.00000000000000	-8.86457700000000	0.00000000000000	0.00000000000000	-23.60640200000000	0.00000000000000	
